<svg xmlns="http://www.w3.org/2000/svg" viewBox="0 0 235.56 189.87"><defs><style>.cls-1{fill:#74ba24;}.cls-1,.cls-2{fill-rule:evenodd;}.cls-2,.cls-3{fill:#5b9b22;}.cls-4{fill:#ebffff;}.cls-5{fill:#c3eced;}.cls-6{fill:#fd5008;}.cls-7{fill:#86b0b2;}.cls-8{fill:#6f9e9e;}.cls-9{fill:#d4f8f9;}.cls-10{fill:#e9721b;}.cls-11{fill:#f7971e;}.cls-12{fill:#fccd35;}.cls-13{fill:#278fb0;}.cls-14{fill:#21849b;}.cls-15{fill:#38acc6;}.cls-16{fill:#282f39;}.cls-17{fill:#e2bd9f;}.cls-18{fill:#edcbac;}.cls-19{fill:#e0410a;}.cls-20{fill:#20262d;}.cls-21{fill:#f4fcfc;}.cls-22{fill:#c03129;}.cls-23{fill:#af2623;}.cls-24{fill:#d66316;}.cls-25{fill:#1a7887;}.cls-26{fill:#353c44;}.cls-27{fill:#588c0e;}.cls-28{fill:#66b114;}.cls-29{fill:#609e10;}.cls-30{fill:#ce3006;}</style></defs><g id="Layer_2" data-name="Layer 2"><g id="Objects"><path class="cls-1" d="M81.87,61.93A34.34,34.34,0,0,1,63,41.44C52.16,10.57,87.22-3.11,94.33,35.5,97.84,54.58,82.2,61.19,81.87,61.93Z"/><path class="cls-2" d="M80.53,54.71s-.56-1.5-1.42-4.77c-.1.18-.68.47-3-.16a29.75,29.75,0,0,1-6.35-3.25l9.28,3.35c-.44-1.69-1-3.86-1.52-6.56-.51,0-1.6-.33-3.72-1.84-3.2-2.28-7.25-7.79-7.25-7.79l10.85,9c-.41-2-.84-4.23-1.28-6.74-.09-.54-.18-1.07-.26-1.58a11.14,11.14,0,0,1-3.23-1.75c-3.22-2.3-7.27-7.81-7.27-7.81l10.34,8.6c-1.69-11.33-.61-15.66-.61-15.66s.61,6.74,2,16.57l7.63-11.76s-2.24,6.48-4.62,9.61c-1.48,2-2.4,2.65-2.91,2.84.34,2.37.73,4.93,1.15,7.59l9.06-10.69s-3,6.13-5.8,8.94a8.88,8.88,0,0,1-3.16,2.41q.49,3,1.07,6.24l8.63-4.76A30.4,30.4,0,0,1,82.41,49c-1.91.87-2.62.81-2.83.68.3,1.65.62,3.34,1,5.05Z"/><path class="cls-1" d="M35.61,123.19a34.34,34.34,0,0,1-26.1-9.71C-14.14,90.87,10.92,62.79,34.74,94c11.77,15.42.82,28.4.87,29.2Z"/><path class="cls-2" d="M31.14,117.37s-1.18-1.08-3.43-3.61c0,.2-.39.73-2.7,1.2a29.85,29.85,0,0,1-7.13,0l9.78-1.22c-1.15-1.31-2.6-3-4.32-5.17-.45.25-1.58.43-4.14,0-3.9-.58-10-3.66-10-3.66L23,108.06c-1.26-1.57-2.67-3.38-4.2-5.42-.32-.45-.64-.87-.94-1.29a11.33,11.33,0,0,1-3.67-.11c-3.91-.58-10-3.67-10-3.67l13.11,3C10.6,91.22,9.6,86.88,9.6,86.88s3.6,5.73,9.28,13.87l1.47-13.94s.94,6.79.24,10.66c-.43,2.41-.94,3.44-1.31,3.85,1.38,2,2.88,4.06,4.47,6.24L27,93.92s.07,6.84-1.12,10.6a9.18,9.18,0,0,1-1.72,3.59c1.21,1.65,2.47,3.35,3.77,5.07L33.45,105a30.54,30.54,0,0,1-3.23,6.37c-1.31,1.65-2,1.92-2.22,1.89,1,1.34,2.07,2.71,3.14,4.08Z"/><path class="cls-1" d="M206,119s-6.85-.62-8.72-6.48-.54-10.54-.13-10.84S210.59,110.61,206,119Z"/><path class="cls-1" d="M211.85,103.56s1.6-6.72,7.5-8.45,9.7-.45,10,0c.16.25-1.82,4.9-6.11,7.65-3.08,2-7.91,2.83-11.39.84Z"/><path class="cls-1" d="M212,103.56s-6.88-.07-9.21-5.76-1.38-10.46-1-10.79,14.1,7.82,10.21,16.55Z"/><path class="cls-1" d="M205.82,119s2.59-6.41,8.68-7.24,9.67,1,9.89,1.48c.12.26-2.53,4.56-7.19,6.64-3.35,1.48-8.25,1.6-11.38-.88Z"/><path class="cls-1" d="M217,84.51s1.6-6.72,7.5-8.45,9.7-.44,10,0c.15.25-1.82,4.91-6.11,7.64-3.08,2-7.91,2.84-11.39.85Z"/><path class="cls-1" d="M216.87,84.41s-6.88-.06-9.2-5.75-1.39-10.47-1-10.8,14.1,7.82,10.21,16.55Z"/><path class="cls-1" d="M220.29,62.83s.1-6.91,5.47-9.88,9.4-2.55,9.77-2.21c.2.2-.72,5.18-4.3,8.79-2.59,2.59-7.12,4.48-10.94,3.3Z"/><path class="cls-1" d="M220.13,62.88s-6.73,1.43-10.22-3.62-3.64-9.92-3.33-10.31S222,53.52,220.13,62.88Z"/><path class="cls-1" d="M220.22,44.87s-7-3.17-6.81-10,3.29-11.31,3.83-11.48c.33-.09,5,4.58,6.27,10.34a11.82,11.82,0,0,1-3.29,11.17Z"/><path class="cls-3" d="M202.05,125.75c.06-.12,21.29-40.46,17.5-83.06l1-.08c3.8,42.88-17.56,83.47-17.62,83.59Z"/><path class="cls-1" d="M46.55,95.68s6.85-.62,8.72-6.49.54-10.54.14-10.83S42,87.27,46.55,95.68Z"/><path class="cls-1" d="M40.72,80.23s-1.6-6.72-7.49-8.45-9.71-.46-10,0c-.16.25,1.81,4.9,6.1,7.64,3.08,2,7.91,2.84,11.39.85Z"/><path class="cls-1" d="M40.57,80.22s6.88-.07,9.2-5.76,1.39-10.45,1-10.78-14.1,7.81-10.21,16.54Z"/><path class="cls-1" d="M46.75,95.69s-2.59-6.4-8.68-7.24-9.66,1-9.88,1.48c-.13.27,2.53,4.57,7.19,6.64,3.34,1.48,8.25,1.6,11.37-.88Z"/><path class="cls-1" d="M35.57,61.17s-1.6-6.71-7.49-8.45-9.71-.44-10,0c-.16.24,1.81,4.91,6.11,7.64,3.07,2,7.91,2.83,11.38.84Z"/><path class="cls-1" d="M35.71,61.07s6.87-.06,9.2-5.75,1.39-10.46,1-10.79-14.09,7.82-10.2,16.54Z"/><path class="cls-1" d="M32.28,39.49s-.09-6.91-5.47-9.87-9.39-2.55-9.76-2.21c-.21.2.71,5.18,4.29,8.78,2.6,2.6,7.13,4.49,10.94,3.3Z"/><path class="cls-1" d="M32.45,39.54S39.18,41,42.67,35.93,46.3,26,46,25.62,30.55,30.18,32.45,39.54Z"/><path class="cls-1" d="M32.35,21.53s7-3.16,6.81-10S35.87.19,35.34,0c-.34-.09-5,4.58-6.28,10.34a11.82,11.82,0,0,0,3.29,11.16Z"/><path class="cls-3" d="M50.53,102.42C50.47,102.3,29.23,62,33,19.36l-1-.08c-3.81,42.88,17.55,83.47,17.61,83.59Z"/><rect class="cls-4" x="137.65" y="17.03" width="83.67" height="66.04" transform="translate(103.03 219.97) rotate(-81.36)"/><rect class="cls-5" x="118.83" y="33.21" width="83.67" height="27.96" transform="translate(89.87 198.94) rotate(-81.36)"/><rect class="cls-6" x="173.81" y="23.7" width="18.34" height="6.79" transform="matrix(0.15, -0.99, 0.99, 0.15, 128.7, 203.92)"/><rect class="cls-6" x="179.58" y="17.92" width="6.79" height="18.34" transform="translate(128.67 203.92) rotate(-81.35)"/><rect class="cls-7" x="179.32" y="19.18" width="2.99" height="50.46" transform="translate(109.72 216.49) rotate(-81.36)"/><rect class="cls-7" x="177.89" y="28.53" width="2.99" height="50.47" transform="translate(99.27 223.03) rotate(-81.35)"/><rect class="cls-7" x="176.47" y="37.87" width="2.99" height="50.47" transform="translate(88.83 229.57) rotate(-81.36)"/><rect class="cls-7" x="175.05" y="47.22" width="2.99" height="50.47" transform="translate(78.38 236.1) rotate(-81.35)"/><rect class="cls-7" x="173.63" y="56.57" width="2.99" height="50.47" transform="translate(67.94 242.64) rotate(-81.36)"/><rect class="cls-8" x="164.11" y="32.25" width="2.99" height="19.71" transform="translate(99.09 199.5) rotate(-81.36)"/><rect class="cls-8" x="162.69" y="41.59" width="2.99" height="19.71" transform="translate(88.64 206.03) rotate(-81.35)"/><rect class="cls-8" x="161.27" y="50.94" width="2.99" height="19.71" transform="translate(78.2 212.58) rotate(-81.36)"/><rect class="cls-8" x="159.85" y="60.29" width="2.99" height="19.71" transform="translate(67.75 219.11) rotate(-81.36)"/><rect class="cls-8" x="158.43" y="69.63" width="2.99" height="19.71" transform="matrix(0.15, -0.99, 0.99, 0.15, 57.31, 225.66)"/><rect class="cls-4" x="50.89" y="30.01" width="18.69" height="33.4" transform="translate(0.13 -0.17) rotate(0.16)"/><rect class="cls-9" x="50.93" y="30.01" width="18.69" height="7.22" transform="translate(0.1 -0.17) rotate(0.16)"/><path class="cls-4" d="M86.22,76.15A26.07,26.07,0,1,1,60.23,50,26.07,26.07,0,0,1,86.22,76.15Z"/><path class="cls-9" d="M69.56,51.77,69.62,30l-9.34,0v72.13a26.06,26.06,0,0,0,9.28-50.37Z"/><path class="cls-4" d="M71.48,33.11l-22.42-.06a3.59,3.59,0,0,1-3.57-3.59h0a3.59,3.59,0,0,1,3.59-3.58l22.43.06a3.6,3.6,0,0,1,3.57,3.6h0A3.59,3.59,0,0,1,71.48,33.11Z"/><path class="cls-9" d="M71.51,25.94l-22.43-.06a3.59,3.59,0,0,0-3.59,3.58l29.59.08A3.6,3.6,0,0,0,71.51,25.94Z"/><path class="cls-10" d="M81.85,74.15s-.78-10.89-18.08-3.06-16.18,6.62-16.18,6.62S75.11,93.79,81.85,74.15Z"/><path class="cls-11" d="M59.39,76.06c-7.87-7.36-15.89-5.85-20.61-3.84a22.26,22.26,0,0,0-.34,3.86,21.75,21.75,0,0,0,43.5,0c0-.65,0-1.29-.09-1.93C77.53,78.87,68.69,84.77,59.39,76.06Z"/><path class="cls-10" d="M65.65,91.65c-12.4,0-23-5.09-27-12.23a21.75,21.75,0,0,0,38,10.8A42.5,42.5,0,0,1,65.65,91.65Z"/><path class="cls-12" d="M44.57,74.71a.7.7,0,0,1-.7.7.71.71,0,1,1,.7-.7Z"/><path class="cls-12" d="M51.48,77.71a.7.7,0,1,1-1.4,0,.7.7,0,1,1,1.4,0Z"/><path class="cls-12" d="M49.69,80.4a.7.7,0,0,1-.7.71.71.71,0,0,1-.71-.71.7.7,0,0,1,.71-.7A.7.7,0,0,1,49.69,80.4Z"/><path class="cls-12" d="M61.71,88.24a.7.7,0,1,1,1.17.78.69.69,0,0,1-1,.19A.71.71,0,0,1,61.71,88.24Z"/><path class="cls-12" d="M62.42,83.11a.69.69,0,0,1,1-.2.7.7,0,1,1-.78,1.17A.69.69,0,0,1,62.42,83.11Z"/><path class="cls-12" d="M63.89,94.47a.7.7,0,0,1,1-.19.69.69,0,0,1,.2,1,.7.7,0,1,1-1.17-.78Z"/><path class="cls-12" d="M73.94,83.81a.7.7,0,1,1,1.17.78.72.72,0,0,1-1,.2A.71.71,0,0,1,73.94,83.81Z"/><path class="cls-12" d="M52.19,90.19a.71.71,0,1,1-1.41,0,.71.71,0,0,1,1.41,0Z"/><path class="cls-12" d="M60.64,85.65a.7.7,0,0,1-.71.7.7.7,0,1,1,0-1.4A.7.7,0,0,1,60.64,85.65Z"/><path class="cls-4" d="M14.33,66.86l10.1,31.63,1,3.08,3.49,11a9.34,9.34,0,0,0,11.74,6h0a9.33,9.33,0,0,0,6.06-11.74L43.21,95.89l-1-3.08L32.13,61.17Z"/><path class="cls-9" d="M40.71,118.55a9.34,9.34,0,0,0,6-11.72L43.21,95.89l-1-3.08L32.13,61.17,23.3,64Z"/><rect class="cls-9" x="15.24" y="63.8" width="18.68" height="8.93" transform="translate(-19.6 10.71) rotate(-17.71)"/><path class="cls-4" d="M35,64,13.64,70.84a3.6,3.6,0,0,1-4.51-2.33h0A3.59,3.59,0,0,1,11.46,64l21.36-6.82a3.59,3.59,0,0,1,4.5,2.32h0A3.6,3.6,0,0,1,35,64Z"/><path class="cls-9" d="M32.82,57.19,11.46,64a3.59,3.59,0,0,0-2.33,4.5l28.19-9A3.59,3.59,0,0,0,32.82,57.19Z"/><path class="cls-13" d="M24.05,87l6.72,21.07L29,102.53l2.33,7.28a6.22,6.22,0,0,0,7.82,4h0a6.22,6.22,0,0,0,4-7.82l-2.32-7.29-.66-2L35.9,83.26Z"/><path class="cls-14" d="M29.1,102.86l1.67,5.25.55,1.7a6.22,6.22,0,0,0,7.82,4h0a6.22,6.22,0,0,0,4-7.82l-.74-2.31A19.32,19.32,0,0,1,29.1,102.86Z"/><path class="cls-15" d="M29.93,89.85a.7.7,0,1,1-1.34.43.7.7,0,1,1,1.34-.43Z"/><path class="cls-15" d="M34.72,93.9a.7.7,0,0,1-1.34.43.71.71,0,0,1,.45-.89A.72.72,0,0,1,34.72,93.9Z"/><path class="cls-15" d="M34.06,96.46a.72.72,0,0,1-.46.89A.71.71,0,0,1,33.17,96,.72.72,0,0,1,34.06,96.46Z"/><path class="cls-15" d="M35.4,107.87a.71.71,0,1,1,.49.87A.71.71,0,0,1,35.4,107.87Z"/><path class="cls-15" d="M37.77,109.17a.7.7,0,1,1,.48.88A.71.71,0,0,1,37.77,109.17Z"/><path class="cls-15" d="M32.87,102.62a.71.71,0,0,1-1.35.43.72.72,0,0,1,.46-.89A.71.71,0,0,1,32.87,102.62Z"/><path class="cls-15" d="M40.16,101.5a.7.7,0,0,1-.45.88.71.71,0,0,1-.89-.45.72.72,0,0,1,.46-.89A.7.7,0,0,1,40.16,101.5Z"/><path class="cls-16" d="M156.11,39.15s1.51,30,15.55,41.72C161.47,99.21,78.73,102,68.87,77.81c0,0,14-5.66,15.49-21S88.6,26.7,88.6,26.7l62-1.88Z"/><path class="cls-17" d="M142.85,54.68A9.11,9.11,0,1,0,152,45.57,9.11,9.11,0,0,0,142.85,54.68Z"/><path class="cls-17" d="M79.63,54.68a9.1,9.1,0,1,0,9.1-9.11A9.1,9.1,0,0,0,79.63,54.68Z"/><polygon class="cls-17" points="103.49 94.59 119.73 108.87 136.76 94.59 136.76 79.16 103.49 79.16 103.49 94.59"/><polygon class="cls-4" points="100.68 94.33 105.67 100.7 119.73 114.57 134.09 100.74 139.86 94.33 137.82 87.92 120.27 100.32 102.71 87.92 100.68 94.33"/><polygon class="cls-5" points="134.09 96.47 119.73 110.29 105.67 96.42 101.64 91.29 100.68 94.33 105.67 100.7 119.73 114.57 134.09 100.74 139.86 94.33 138.85 91.17 134.09 96.47"/><path class="cls-18" d="M84.05,43.69c0,23,15.84,41.73,35.38,41.73s35.38-18.68,35.38-41.73S139,2,119.43,2,84.05,20.65,84.05,43.69Z"/><path class="cls-17" d="M119.15,5.3c14.1,0,26.4,9,33,22.47a48.38,48.38,0,0,1,2.67,15.92c0,.6,0,1.19,0,1.77-4,2-9.71,3.32-17.65,2.35,0,0,3.65-6.84,3.35-10,0,0-14.55,11.88-31.27,14.81a67.46,67.46,0,0,0-22,8.2,48.47,48.47,0,0,1,1.1-36.89C95.2,12.64,106.44,5.3,119.15,5.3Z"/><path class="cls-16" d="M157,38.81C154.53,16.9,138.64,0,119.39,0c-21,0-37.94,20-37.94,44.75a52.3,52.3,0,0,0,1.71,13.33,67.52,67.52,0,0,1,26.32-11c16.65-2.92,31.13-14.75,31.13-14.75.31,3.16-7.11,11.91-7.11,11.91a36.92,36.92,0,0,0,15-1.71l6,6.83A30.74,30.74,0,0,0,157,38.81Z"/><path class="cls-19" d="M119.43,78.41c-6.66,0-12.05-4.82-12.05-10.77h24.11C131.49,73.59,126.09,78.41,119.43,78.41Z"/><path class="cls-6" d="M119.43,78.41a12.67,12.67,0,0,1-9-3.62,10.13,10.13,0,0,1,18.5-.53A12.61,12.61,0,0,1,119.43,78.41Z"/><path class="cls-7" d="M214.8,187.5H190.12c-3.83,0-6.81-1.1-8.85-3.26a10.79,10.79,0,0,1-2.75-7.37V129.68a1.59,1.59,0,1,1,3.18,0V177a7.62,7.62,0,0,0,1.9,5.08c1.42,1.49,3.62,2.25,6.52,2.25H214.8a1.59,1.59,0,0,1,0,3.18Z"/><path class="cls-16" d="M185.47,157.62c0,2.22-1.36,4-3,4h-4.65c-1.67,0-3-1.8-3-4V145.18c0-2.22,1.36-4,3-4h4.65c1.67,0,3,1.8,3,4Z"/><path class="cls-20" d="M182.44,141.16h-4.65c-1.67,0-3,1.8-3,4v9.38h10.71v-9.38C185.47,143,184.11,141.16,182.44,141.16Z"/><rect class="cls-4" x="149.08" y="59.58" width="65.72" height="77.77" rx="8.76"/><path class="cls-21" d="M191.31,147.24a4.33,4.33,0,0,1-4.48,4.16H173.4a4.32,4.32,0,0,1-4.48-4.16v-18.7a4.32,4.32,0,0,1,4.48-4.16h13.43a4.33,4.33,0,0,1,4.48,4.16Z"/><rect class="cls-6" x="153.4" y="64.69" width="57.08" height="67.55" rx="7.61"/><path class="cls-19" d="M202.87,126.35H161a7.61,7.61,0,0,1-7.61-7.61v5.88a7.6,7.6,0,0,0,7.61,7.61h41.86a7.61,7.61,0,0,0,7.61-7.61v-5.88A7.61,7.61,0,0,1,202.87,126.35Z"/><path class="cls-19" d="M186.57,143.77a2.74,2.74,0,0,1-2.58,2.87h-7.75a2.74,2.74,0,0,1-2.58-2.87V130.85a2.75,2.75,0,0,1,2.58-2.88H184a2.75,2.75,0,0,1,2.58,2.88Z"/><path class="cls-21" d="M194.72,89.55a12.78,12.78,0,1,1-12.78-12.78A12.78,12.78,0,0,1,194.72,89.55Z"/><rect class="cls-6" x="178.91" y="81.37" width="6.06" height="16.36"/><rect class="cls-6" x="173.76" y="86.52" width="16.36" height="6.06"/><path class="cls-10" d="M168.23,181v2.09c0,6.61-21.63,6.61-21.63,0V181"/><path class="cls-11" d="M146.6,180.82c0,2.43,4.84,4.4,10.82,4.4s10.81-2,10.81-4.4-4.84-4.4-10.81-4.4S146.6,178.39,146.6,180.82Z"/><path class="cls-22" d="M150.12,180.19a.78.78,0,0,0,.7.83h13a.77.77,0,0,0,.69-.83h0a.76.76,0,0,0-.69-.82h-13a.77.77,0,0,0-.7.82Z"/><path class="cls-23" d="M150.82,179.37h13a.76.76,0,0,1,.69.82.87.87,0,0,1-.34.7.76.76,0,0,0,0-.16.74.74,0,0,0-.67-.79H151.1a.73.73,0,0,0-.66.79.76.76,0,0,0,0,.16.85.85,0,0,1-.35-.7A.77.77,0,0,1,150.82,179.37Z"/><path class="cls-10" d="M168.23,176.59v2.1c0,6.61-21.63,6.61-21.63,0v-2.1"/><path class="cls-11" d="M146.6,176.4c0,2.43,4.84,4.4,10.82,4.4s10.81-2,10.81-4.4-4.84-4.4-10.81-4.4S146.6,174,146.6,176.4Z"/><path class="cls-22" d="M150.12,175.77a.77.77,0,0,0,.7.82h13a.76.76,0,0,0,.69-.82h0a.76.76,0,0,0-.69-.82h-13a.77.77,0,0,0-.7.82Z"/><path class="cls-23" d="M150.82,175h13a.76.76,0,0,1,.69.82.83.83,0,0,1-.34.69.66.66,0,0,0,0-.15.74.74,0,0,0-.67-.79H151.1a.73.73,0,0,0-.66.79.66.66,0,0,0,0,.15.82.82,0,0,1-.35-.69A.77.77,0,0,1,150.82,175Z"/><path class="cls-10" d="M168.23,172.1v2.1c0,6.6-21.63,6.6-21.63,0v-2.1"/><path class="cls-11" d="M146.6,171.91c0,2.43,4.84,4.4,10.82,4.4s10.81-2,10.81-4.4-4.84-4.4-10.81-4.4S146.6,169.48,146.6,171.91Z"/><path class="cls-22" d="M150.12,171.28a.77.77,0,0,0,.7.82h13a.77.77,0,0,0,.69-.82h0a.77.77,0,0,0-.69-.83h-13a.78.78,0,0,0-.7.83Z"/><path class="cls-23" d="M150.82,170.45h13a.77.77,0,0,1,.69.83.83.83,0,0,1-.34.69.8.8,0,0,0,0-.15.74.74,0,0,0-.67-.79H151.1a.73.73,0,0,0-.66.79.8.8,0,0,0,0,.15.82.82,0,0,1-.35-.69A.78.78,0,0,1,150.82,170.45Z"/><path class="cls-10" d="M168.23,167.61v2.1c0,6.6-21.63,6.6-21.63,0v-2.1"/><path class="cls-11" d="M146.6,167.41c0,2.44,4.84,4.4,10.82,4.4s10.81-2,10.81-4.4S163.39,163,157.42,163,146.6,165,146.6,167.41Z"/><path class="cls-10" d="M150.12,166.79a.77.77,0,0,0,.7.82h13a.77.77,0,0,0,.69-.82h0a.77.77,0,0,0-.69-.83h-13a.78.78,0,0,0-.7.83Z"/><path class="cls-24" d="M150.82,166h13a.77.77,0,0,1,.69.83.83.83,0,0,1-.34.69.8.8,0,0,0,0-.15.74.74,0,0,0-.67-.79H151.1a.73.73,0,0,0-.66.79.8.8,0,0,0,0,.15.82.82,0,0,1-.35-.69A.78.78,0,0,1,150.82,166Z"/><path class="cls-10" d="M151.14,182v2.1c0,6.6-21.63,6.6-21.63,0V182"/><path class="cls-11" d="M129.51,181.8c0,2.43,4.84,4.4,10.82,4.4s10.81-2,10.81-4.4-4.84-4.4-10.81-4.4S129.51,179.37,129.51,181.8Z"/><path class="cls-22" d="M133,181.17a.77.77,0,0,0,.69.83h13a.77.77,0,0,0,.69-.83h0a.77.77,0,0,0-.69-.82h-13a.77.77,0,0,0-.69.82Z"/><path class="cls-23" d="M133.73,180.35h13a.77.77,0,0,1,.69.82.85.85,0,0,1-.34.7.76.76,0,0,0,0-.16.73.73,0,0,0-.66-.78H134a.73.73,0,0,0-.66.78.76.76,0,0,0,0,.16.85.85,0,0,1-.34-.7A.77.77,0,0,1,133.73,180.35Z"/><path class="cls-10" d="M151.14,177.58v2.09c0,6.61-21.63,6.61-21.63,0v-2.09"/><path class="cls-11" d="M129.51,177.38c0,2.43,4.84,4.4,10.82,4.4s10.81-2,10.81-4.4-4.84-4.4-10.81-4.4S129.51,175,129.51,177.38Z"/><path class="cls-10" d="M133,176.75a.77.77,0,0,0,.69.83h13a.77.77,0,0,0,.69-.83h0a.77.77,0,0,0-.69-.82h-13a.77.77,0,0,0-.69.82Z"/><path class="cls-24" d="M133.73,175.93h13a.77.77,0,0,1,.69.82.87.87,0,0,1-.34.7.8.8,0,0,0,0-.15.73.73,0,0,0-.66-.79H134a.73.73,0,0,0-.66.79.8.8,0,0,0,0,.15.87.87,0,0,1-.34-.7A.77.77,0,0,1,133.73,175.93Z"/><path class="cls-4" d="M138,130.37a1.4,1.4,0,0,0,.39-2l-12.46-18.68a1.42,1.42,0,0,0-2-.39l-4,2.7a1.4,1.4,0,0,0-.39,2L132,132.68a1.42,1.42,0,0,0,2,.39Z"/><polygon class="cls-9" points="120.14 114.94 126.53 110.68 127.78 112.54 121.51 116.98 120.14 114.94"/><path class="cls-4" d="M125.64,107.59a1.54,1.54,0,0,1,2.12.43h0a1.53,1.53,0,0,1-.42,2.12l-8,5.36a1.52,1.52,0,0,1-2.12-.43h0a1.54,1.54,0,0,1,.43-2.12Z"/><path class="cls-4" d="M123.82,131.4l17.33,26a2.9,2.9,0,0,0,4,.8l2.29-1.52,2.87,4.3a1.23,1.23,0,0,0,1.71.34l4.88-3.26a1.23,1.23,0,0,0,.34-1.71l-2.87-4.3,2.29-1.53a2.9,2.9,0,0,0,.8-4l-17.33-26a2.9,2.9,0,0,0-4-.8l-11.51,7.68A2.9,2.9,0,0,0,123.82,131.4Z"/><path class="cls-13" d="M129.52,136.75,142,155.48a2.09,2.09,0,0,0,2.9.58l2.46-1.64,4.21,6.32a.88.88,0,0,0,1.23.24l3.53-2.35a.88.88,0,0,0,.24-1.23l-4.21-6.32,2.45-1.63a2.09,2.09,0,0,0,.58-2.9l-12.5-18.73a2.09,2.09,0,0,0-2.9-.58l-9.91,6.61A2.09,2.09,0,0,0,129.52,136.75Z"/><path class="cls-16" d="M139.52,114.92a2.09,2.09,0,0,1,2.9.58h0a2.09,2.09,0,0,1-.57,2.9l-20.62,13.75a2.08,2.08,0,0,1-2.9-.57h0a2.09,2.09,0,0,1,.58-2.9Z"/><path class="cls-7" d="M149.24,145a.39.39,0,0,1,.56.11h0a.38.38,0,0,1-.11.55L143,150.13a.41.41,0,0,1-.56-.11h0a.41.41,0,0,1,.11-.56Z"/><path class="cls-7" d="M144.6,138a.4.4,0,0,1,.56.11h0a.4.4,0,0,1-.11.55l-6.7,4.47a.4.4,0,0,1-.55-.11h0a.39.39,0,0,1,.11-.56Z"/><path class="cls-7" d="M140,131.08a.39.39,0,0,1,.56.11h0a.38.38,0,0,1-.11.55l-6.69,4.47a.41.41,0,0,1-.56-.11h0a.41.41,0,0,1,.11-.56Z"/><path class="cls-7" d="M149.92,149.38a.41.41,0,0,1,.56.11h0a.41.41,0,0,1-.11.56l-3,2a.41.41,0,0,1-.56-.11h0a.41.41,0,0,1,.11-.56Z"/><path class="cls-7" d="M145.4,142.6a.41.41,0,0,1,.56.11h0a.41.41,0,0,1-.11.56l-3,2a.39.39,0,0,1-.56-.11h0a.4.4,0,0,1,.11-.56Z"/><path class="cls-7" d="M140.88,135.83a.38.38,0,0,1,.55.11h0a.4.4,0,0,1-.11.56l-3,2a.4.4,0,0,1-.55-.11h0a.39.39,0,0,1,.11-.56Z"/><path class="cls-7" d="M136.36,129.05a.4.4,0,0,1,.55.11h0a.39.39,0,0,1-.11.56l-3,2a.4.4,0,0,1-.56-.11h0a.41.41,0,0,1,.11-.56Z"/><path class="cls-7" d="M172.47,186.42a.44.44,0,0,0,.12-.62l-10.21-15.31a.45.45,0,0,0-.63-.13h0a.45.45,0,0,0-.13.63l10.22,15.31a.46.46,0,0,0,.63.12Z"/><path class="cls-16" d="M157.6,155.48a1.53,1.53,0,0,1,2.12.42h0a1.54,1.54,0,0,1-.43,2.12l-8,5.36a1.53,1.53,0,0,1-2.12-.42h0a1.53,1.53,0,0,1,.42-2.12Z"/><path class="cls-16" d="M165.54,173.05a1,1,0,0,0,.27-1.33l-8.53-12.78a1,1,0,0,0-1.34-.27l-2.76,1.85a1,1,0,0,0-.26,1.34l8.52,12.77a1,1,0,0,0,1.34.27Z"/><polygon class="cls-20" points="153.11 162.15 157.48 159.23 158.66 161.01 154.34 163.99 153.11 162.15"/><path class="cls-16" d="M139.9,161.29c-1.22,2.43-3.8,3.59-5.76,2.6l-.74-.37c-2-1-2.56-3.75-1.34-6.18l8.57-17c1.23-2.43,3.81-3.59,5.77-2.61l.74.38c2,1,2.56,3.75,1.34,6.18Z"/><polygon class="cls-20" points="133.53 154.42 141.58 157.97 145.59 150.01 137.65 146.23 133.53 154.42"/><path class="cls-7" d="M131.3,180.6a1.26,1.26,0,0,1-1.7.56l-7.38-3.71a1.28,1.28,0,0,1-.56-1.71l12.57-25a1.28,1.28,0,0,1,1.71-.57l7.37,3.72a1.27,1.27,0,0,1,.57,1.7Z"/><path class="cls-7" d="M127.18,183.14a2.54,2.54,0,0,1-3.42,1.13h0a2.54,2.54,0,0,1-1.12-3.41l2-4a2.54,2.54,0,0,1,3.41-1.13h0a2.54,2.54,0,0,1,1.13,3.41Z"/><path class="cls-16" d="M147.92,156.26a1.43,1.43,0,0,1-1.92.63l-14-7.07a1.43,1.43,0,0,1-.63-1.92h0a1.43,1.43,0,0,1,1.92-.63l14,7.07a1.43,1.43,0,0,1,.63,1.92Z"/><path class="cls-5" d="M132.83,172.29a.31.31,0,0,1,.14.41h0a.31.31,0,0,1-.41.13l-5.41-2.72a.32.32,0,0,1-.13-.41h0a.3.3,0,0,1,.41-.13Z"/><path class="cls-5" d="M135.66,166.67a.31.31,0,0,1,.14.41h0a.31.31,0,0,1-.41.13l-5.4-2.72a.31.31,0,0,1-.14-.41h0a.3.3,0,0,1,.41-.13Z"/><path class="cls-5" d="M130.22,174.36a.32.32,0,0,1,.13.41h0a.31.31,0,0,1-.41.13l-2.43-1.22a.3.3,0,0,1-.13-.41h0a.3.3,0,0,1,.4-.14Z"/><path class="cls-5" d="M133,168.89a.29.29,0,0,1,.13.4h0a.3.3,0,0,1-.4.14l-2.43-1.23a.3.3,0,0,1-.14-.4h0a.31.31,0,0,1,.41-.14Z"/><path class="cls-5" d="M135.73,163.42a.29.29,0,0,1,.13.4h0a.3.3,0,0,1-.4.14L133,162.73a.31.31,0,0,1-.13-.41h0a.32.32,0,0,1,.41-.13Z"/><polygon class="cls-8" points="134.16 150.93 143.79 155.82 142.55 158.28 132.86 153.52 134.16 150.93"/><rect class="cls-25" x="74.09" y="107.26" width="27.34" height="11.73"/><rect class="cls-25" x="69.72" y="182.55" width="36.09" height="4.16"/><rect class="cls-13" x="63.91" y="116.98" width="48.78" height="65.57" rx="3.68"/><path class="cls-14" d="M67.6,117H88.3v65.57H67.6a3.69,3.69,0,0,1-3.69-3.68V120.66A3.69,3.69,0,0,1,67.6,117Z"/><path class="cls-16" d="M69.57,105.74c0,1.69,1.84,3.05,4.12,3.05h28.8c2.27,0,4.12-1.36,4.12-3.05V95.58c0-1.68-1.85-3-4.12-3H73.69c-2.28,0-4.12,1.37-4.12,3Z"/><path class="cls-20" d="M73.69,92.53H88.15v16.26H73.69c-2.28,0-4.12-1.36-4.12-3.05V95.58C69.57,93.9,71.41,92.53,73.69,92.53Z"/><path class="cls-26" d="M100,105.69a1,1,0,0,0,1,1h0a1,1,0,0,0,1-1V95.94a1,1,0,0,0-1-1h0a1,1,0,0,0-1,1Z"/><path class="cls-26" d="M93.57,105.69a1,1,0,0,0,1,1h0a1,1,0,0,0,1-1V95.94a1,1,0,0,0-1-1h0a1,1,0,0,0-1,1Z"/><path class="cls-26" d="M87.13,105.69a1,1,0,0,0,1,1h0a1,1,0,0,0,1-1V95.94a1,1,0,0,0-1-1h0a1,1,0,0,0-1,1Z"/><path class="cls-26" d="M80.69,105.69a1,1,0,0,0,1,1h0a1,1,0,0,0,1-1V95.94a1,1,0,0,0-1-1h0a1,1,0,0,0-1,1Z"/><path class="cls-26" d="M74.25,105.69a1,1,0,0,0,1,1h0a1,1,0,0,0,1-1V95.94a1,1,0,0,0-1-1h0a1,1,0,0,0-1,1Z"/><rect class="cls-4" x="79.54" y="127.04" width="33.15" height="44.17"/><rect class="cls-5" x="79.54" y="127.04" width="14.04" height="44.17"/><rect class="cls-7" x="83.68" y="132.87" width="29.01" height="1.84"/><rect class="cls-7" x="83.68" y="138.7" width="29.01" height="1.84"/><rect class="cls-7" x="83.68" y="144.53" width="29.01" height="1.84"/><rect class="cls-7" x="83.68" y="150.36" width="29.01" height="1.84"/><rect class="cls-7" x="83.68" y="156.19" width="29.01" height="1.84"/><rect class="cls-8" x="83.68" y="132.87" width="9.9" height="1.84"/><rect class="cls-8" x="83.68" y="138.7" width="9.9" height="1.84"/><rect class="cls-8" x="83.68" y="144.53" width="9.9" height="1.84"/><rect class="cls-8" x="83.68" y="150.36" width="9.9" height="1.84"/><rect class="cls-8" x="83.68" y="156.19" width="9.9" height="1.84"/><rect class="cls-27" x="30.14" y="182.55" width="36.09" height="4.16"/><rect class="cls-28" x="23.26" y="116.98" width="48.77" height="65.57" rx="3.68"/><path class="cls-29" d="M68.36,117H47.65v65.57H68.36A3.68,3.68,0,0,0,72,178.87V120.66A3.68,3.68,0,0,0,68.36,117Z"/><rect class="cls-4" x="23.26" y="136.51" width="33.15" height="36.39"/><rect class="cls-5" x="42.38" y="136.51" width="14.03" height="36.39"/><rect class="cls-7" x="23.26" y="142.34" width="29.01" height="1.84"/><rect class="cls-7" x="23.26" y="148.17" width="29.01" height="1.84"/><rect class="cls-7" x="23.26" y="154" width="29.01" height="1.84"/><rect class="cls-7" x="23.26" y="159.83" width="29.01" height="1.84"/><rect class="cls-7" x="23.26" y="165.66" width="29.01" height="1.84"/><rect class="cls-8" x="42.38" y="142.34" width="9.9" height="1.84"/><rect class="cls-8" x="42.38" y="148.17" width="9.9" height="1.84"/><rect class="cls-8" x="42.38" y="154" width="9.9" height="1.84"/><rect class="cls-8" x="42.38" y="159.83" width="9.9" height="1.84"/><rect class="cls-8" x="42.38" y="165.66" width="9.9" height="1.84"/><path class="cls-16" d="M76.16,124.07c0,1.68-1.84,3.05-4.12,3.05H23.26c-2.28,0-4.12-1.37-4.12-3.05V113.91c0-1.68,1.84-3,4.12-3H72c2.28,0,4.12,1.37,4.12,3Z"/><path class="cls-20" d="M72,110.86H47.59v16.26H72c2.28,0,4.12-1.37,4.12-3.05V113.91C76.16,112.23,74.32,110.86,72,110.86Z"/><path class="cls-26" d="M35.72,124a1,1,0,0,1-1,1h0a1,1,0,0,1-.95-1v-9.74a1,1,0,0,1,.95-1h0a1,1,0,0,1,1,1Z"/><path class="cls-26" d="M42.16,124a1,1,0,0,1-.95,1h0a1,1,0,0,1-1-1v-9.74a1,1,0,0,1,1-1h0a1,1,0,0,1,.95,1Z"/><path class="cls-26" d="M29.28,124a1,1,0,0,1-1,1h0a1,1,0,0,1-1-1v-9.74a1,1,0,0,1,1-1h0a1,1,0,0,1,1,1Z"/><path class="cls-26" d="M48.61,124a1,1,0,0,1-1,1h0a1,1,0,0,1-1-1v-9.74a1,1,0,0,1,1-1h0a1,1,0,0,1,1,1Z"/><path class="cls-26" d="M55.05,124a1,1,0,0,1-1,1h0a1,1,0,0,1-1-1v-9.74a1,1,0,0,1,1-1h0a1,1,0,0,1,1,1Z"/><path class="cls-26" d="M61.49,124a1,1,0,0,1-1,1h0a1,1,0,0,1-1-1v-9.74a1,1,0,0,1,1-1h0a1,1,0,0,1,1,1Z"/><path class="cls-26" d="M67.93,124a1,1,0,0,1-1,1h0a1,1,0,0,1-1-1v-9.74a1,1,0,0,1,1-1h0a1,1,0,0,1,1,1Z"/><path class="cls-11" d="M32.09,175.14H22.27A5.32,5.32,0,0,0,17,180.46v.93a5.32,5.32,0,0,0,5.31,5.32h9.82Z"/><path class="cls-10" d="M17,180.93v.46a5.32,5.32,0,0,0,5.31,5.32h9.82v-5.78Z"/><path class="cls-6" d="M41.91,175.14H32.09v11.57h9.82a5.31,5.31,0,0,0,5.31-5.32v-.93A5.31,5.31,0,0,0,41.91,175.14Z"/><path class="cls-19" d="M32.09,180.93v5.78h9.82a5.31,5.31,0,0,0,5.31-5.32v-.46Z"/><path class="cls-11" d="M55.25,170.07l-7-6.84a5.31,5.31,0,0,0-7.51.12L40,164a5.31,5.31,0,0,0,.11,7.52l7.05,6.83Z"/><path class="cls-10" d="M40.36,163.69,40,164a5.31,5.31,0,0,0,.11,7.52l7.05,6.83,4-4.15Z"/><path class="cls-6" d="M62.3,176.91l-7-6.84-8,8.3,7,6.84a5.3,5.3,0,0,0,7.51-.12l.66-.67A5.31,5.31,0,0,0,62.3,176.91Z"/><path class="cls-19" d="M51.22,174.22l-4,4.15,7,6.84a5.3,5.3,0,0,0,7.51-.12l.33-.33Z"/><path class="cls-19" d="M81.28,181.47V184c0,7.86,27.87,7.86,27.87,0v-2.5"/><path class="cls-6" d="M109.15,181.23c0,2.9-6.24,5.24-13.94,5.24s-13.93-2.34-13.93-5.24S87.52,176,95.21,176,109.15,178.34,109.15,181.23Z"/><path class="cls-19" d="M104.61,180.48a.94.94,0,0,1-.89,1H87a.94.94,0,0,1-.9-1h0a.94.94,0,0,1,.9-1h16.74a.94.94,0,0,1,.89,1Z"/><path class="cls-30" d="M103.72,179.5H87a.94.94,0,0,0-.9,1,1,1,0,0,0,.44.83,1.13,1.13,0,0,1,0-.18.9.9,0,0,1,.85-.94h16a.9.9,0,0,1,.85.94,1.13,1.13,0,0,1,0,.18,1,1,0,0,0,.44-.83A.94.94,0,0,0,103.72,179.5Z"/><path class="cls-19" d="M81.28,176.2v2.5c0,7.87,27.87,7.87,27.87,0v-2.5"/><ellipse class="cls-6" cx="95.21" cy="175.97" rx="13.94" ry="5.24"/><path class="cls-19" d="M104.61,175.22a.94.94,0,0,1-.89,1H87a.94.94,0,0,1-.9-1h0a.94.94,0,0,1,.9-1h16.74a.94.94,0,0,1,.89,1Z"/><path class="cls-30" d="M103.72,174.23H87a.94.94,0,0,0-.9,1,1,1,0,0,0,.44.82,1,1,0,0,1,0-.18.9.9,0,0,1,.85-.94h16a.9.9,0,0,1,.85.94,1,1,0,0,1,0,.18,1,1,0,0,0,.44-.82A.94.94,0,0,0,103.72,174.23Z"/><path class="cls-19" d="M101.86,164.42l-2,1.55c-6.17,4.89,11.12,26.75,17.3,21.86l2-1.55"/><path class="cls-6" d="M119.34,186.14c-2.28,1.8-8-1.64-12.76-7.68s-6.81-12.39-4.53-14.18,8,1.64,12.75,7.68S121.6,184.34,119.34,186.14Z"/><path class="cls-19" d="M117.11,182.11a.94.94,0,0,1-1.33-.09L105.4,168.9a1,1,0,0,1,.21-1.32h0a1,1,0,0,1,1.33.1l10.38,13.12a.94.94,0,0,1-.21,1.31Z"/><path class="cls-30" d="M117.32,180.8l-10.38-13.12a1,1,0,0,0-1.33-.1,1,1,0,0,0-.38.86,1.79,1.79,0,0,1,.13-.14.91.91,0,0,1,1.27.09l9.93,12.55a.91.91,0,0,1-.21,1.26l-.16.08a1,1,0,0,0,.92-.17A.94.94,0,0,0,117.32,180.8Z"/><path class="cls-13" d="M213.85,165.45l5.59-8.07A5.3,5.3,0,0,0,218.1,150l-.77-.53a5.3,5.3,0,0,0-7.39,1.33l-5.6,8.07Z"/><path class="cls-14" d="M217.72,149.72l-.39-.26a5.3,5.3,0,0,0-7.39,1.33l-5.6,8.07,4.75,3.3Z"/><path class="cls-11" d="M208.25,173.52l5.6-8.07-9.51-6.59-5.6,8.07a5.33,5.33,0,0,0,1.34,7.4l.77.53A5.32,5.32,0,0,0,208.25,173.52Z"/><path class="cls-10" d="M209.09,162.16l-4.75-3.3-5.6,8.07a5.33,5.33,0,0,0,1.34,7.4l.39.26Z"/><path class="cls-13" d="M207.25,140.76l-5.4-8.2a5.31,5.31,0,0,0-7.36-1.51l-.79.51a5.31,5.31,0,0,0-1.51,7.36l5.4,8.2Z"/><path class="cls-14" d="M194.09,131.31l-.39.25a5.31,5.31,0,0,0-1.51,7.36l5.4,8.2,4.83-3.18Z"/><path class="cls-11" d="M212.65,149l-5.4-8.2-9.66,6.36,5.4,8.21a5.32,5.32,0,0,0,7.36,1.51l.79-.52A5.32,5.32,0,0,0,212.65,149Z"/><path class="cls-10" d="M202.42,143.94l-4.83,3.18,5.4,8.21a5.32,5.32,0,0,0,7.36,1.51l.39-.26Z"/></g></g></svg>